<svg width="433" height="66" viewBox="0 0 433 66" fill="none" xmlns="http://www.w3.org/2000/svg">
<path d="M431.197 42.3508C434.012 39.583 432.458 34.755 428.569 34.1844L420.672 33.0259C419.128 32.7976 417.794 31.8217 417.099 30.4065L413.566 23.1816C411.825 19.6263 406.799 19.6263 405.064 23.1816L401.531 30.4065C400.841 31.8217 399.507 32.7976 397.958 33.0259L390.061 34.1844C386.172 34.755 384.618 39.5773 387.433 42.3508L393.148 47.9777C394.267 49.0791 394.776 50.6599 394.51 52.2122L393.159 60.156C392.956 61.3545 393.199 62.4616 393.73 63.3747L397.455 58.3641C397.591 58.1472 397.698 57.9133 397.823 57.6907C397.913 57.5252 398.009 57.3597 398.094 57.1885C398.179 57.0173 398.258 56.8404 398.343 56.6635C398.405 56.5265 398.473 56.3895 398.529 56.2469C398.631 55.9901 398.744 55.739 398.829 55.4764C398.97 55.0484 399.049 54.609 398.999 54.1525C398.965 53.8158 398.852 53.5076 398.733 53.1994C398.332 52.1608 398.139 51.0822 398.185 49.9637C398.207 49.4501 398.292 48.9422 398.462 48.4571C398.479 48.4057 398.501 48.3601 398.518 48.3144C398.987 47.0589 401.311 44.1142 401.311 44.1142C401.356 44.0571 401.401 43.9944 401.446 43.9316C401.638 43.6748 401.842 43.418 402.04 43.1612C402.26 42.8758 402.475 42.5848 402.69 42.2994C402.82 42.1225 402.944 41.9456 403.08 41.7744C403.233 41.5804 403.385 41.3978 403.538 41.2094C403.645 41.0725 403.747 40.9355 403.86 40.7985C403.973 40.6559 404.086 40.5189 404.194 40.3819C404.261 40.2963 404.329 40.1993 404.397 40.1137C404.584 39.8797 404.77 39.6515 404.957 39.4175C405.019 39.3376 405.081 39.252 405.143 39.1721C405.301 38.9781 405.46 38.784 405.612 38.5843C405.686 38.493 405.754 38.3903 405.827 38.299C406.014 38.0536 406.206 37.8139 406.398 37.5685C406.562 37.3573 406.72 37.1405 406.884 36.9293C407.054 36.7125 407.223 36.5013 407.393 36.2845C407.483 36.1703 407.568 36.0448 407.653 35.9249C407.811 35.7081 407.958 35.4912 408.122 35.2801C408.303 35.0404 408.49 34.8007 408.693 34.5838C409.01 34.2528 409.405 34.2186 409.807 34.3727C410.163 34.5096 410.434 34.7493 410.519 35.1545C410.564 35.3771 410.519 35.5825 410.4 35.7709C410.27 35.9763 410.129 36.176 409.988 36.3758C409.835 36.5926 409.677 36.8095 409.524 37.0264C409.417 37.1804 409.309 37.3345 409.202 37.4886C408.897 37.9337 408.591 38.3846 408.286 38.8297C408.111 39.0865 407.924 39.3376 407.749 39.5944C407.619 39.777 407.495 39.9596 407.37 40.1423C407.076 40.5817 406.788 41.0268 406.489 41.4662C406.223 41.8543 405.94 42.2367 405.675 42.6247C405.511 42.853 405.358 43.0927 405.2 43.321C404.957 43.6748 404.708 44.0286 404.465 44.3881C404.38 44.5137 404.295 44.6335 404.205 44.7591C404.013 45.0273 403.82 45.3012 403.628 45.5694C403.498 45.7521 403.363 45.929 403.255 46.123C403.17 46.2714 403.125 46.4426 403.063 46.6024C403.057 46.6823 403.052 46.7679 403.04 46.8478C403.046 47.1046 403.136 47.35 403.295 47.5611C403.295 47.5668 403.306 47.5725 403.312 47.5782C403.317 47.5896 403.323 47.5954 403.329 47.6068C403.402 47.6981 403.493 47.778 403.594 47.8407C404.114 48.1832 404.793 48.069 405.183 47.6068C405.188 47.5954 405.194 47.5839 405.2 47.5725C405.279 47.4356 405.375 47.3043 405.46 47.1673C406.206 46.0032 406.958 44.839 407.704 43.6805C409.044 41.6032 410.383 39.5259 411.723 37.4487C411.847 37.2603 411.961 37.0606 412.108 36.8894C412.334 36.6269 412.639 36.507 412.978 36.5584C413.43 36.6269 413.769 36.878 413.922 37.3288C414.024 37.6199 413.973 37.9052 413.809 38.1677C413.532 38.6071 413.249 39.0466 412.967 39.4803C410.971 42.5734 408.981 45.6722 406.98 48.7652C406.833 48.9878 406.799 49.2104 406.862 49.4558C406.963 49.8381 407.139 50.1634 407.489 50.3803C407.941 50.6542 408.416 50.6485 408.863 50.2433C409.123 50.0093 409.292 49.7069 409.451 49.4044C409.462 49.3816 409.479 49.3588 409.496 49.3359C409.643 49.0962 409.79 48.8566 409.937 48.6169C410.089 48.3601 410.236 48.1033 410.389 47.8465C410.508 47.6467 410.626 47.4527 410.745 47.2529C410.937 46.9277 411.135 46.5967 411.327 46.2714C411.525 45.9347 411.729 45.598 411.927 45.267C412.057 45.0501 412.187 44.8333 412.322 44.6164C412.571 44.2169 412.82 43.8232 413.063 43.4237C413.199 43.2068 413.329 42.9843 413.459 42.7617C413.628 42.4763 413.798 42.191 413.967 41.9057C414.029 41.7972 414.092 41.6888 414.154 41.5804L415.047 40.0452C415.047 40.0452 415.047 40.0452 415.047 40.0395C415.115 39.9254 415.183 39.8113 415.245 39.7028L415.482 39.292C415.482 39.292 415.511 39.2463 415.522 39.2178C415.821 38.7898 416.387 38.6756 416.828 38.9552C417.184 39.1835 417.387 39.486 417.416 39.914C417.427 40.108 417.359 40.2792 417.274 40.439C417.155 40.6787 417.009 40.907 416.873 41.141L416.036 42.6989C416.019 42.7389 416.008 42.7731 415.985 42.813C415.968 42.8416 415.951 42.8701 415.934 42.8929L415.098 44.468C415.002 44.6563 414.906 44.8447 414.81 45.0273C414.725 45.1871 414.634 45.3469 414.55 45.5124C414.459 45.6893 414.374 45.8605 414.284 46.0374C414.216 46.1686 414.148 46.2999 414.086 46.4255C413.956 46.688 413.826 46.9562 413.69 47.2187C413.617 47.3557 413.526 47.4869 413.453 47.6296C413.334 47.8522 413.232 48.0804 413.114 48.303C413.035 48.4571 412.944 48.6055 412.865 48.7595C412.746 48.9878 412.639 49.2218 412.515 49.4501C412.396 49.6783 412.26 49.8952 412.136 50.1178C412 50.3517 411.864 50.5857 411.734 50.8197C411.678 50.9224 411.616 51.0251 411.559 51.1336C411.412 51.4018 411.265 51.6643 411.118 51.9325C410.937 52.2521 410.768 52.5717 410.576 52.8856C410.214 53.4734 409.835 54.0612 409.462 54.6433C409.343 54.8259 409.225 55.0199 409.078 55.174C408.727 55.5335 408.348 55.8531 407.907 56.0928C406.839 56.6749 405.697 56.983 404.487 57.0116C403.6 57.0287 402.882 57.3882 402.255 57.9817C402.062 58.1701 401.876 58.3698 401.701 58.5752C401.514 58.7864 401.333 59.009 401.158 59.2315C401.079 59.3342 401.005 59.4427 400.926 59.5454C400.802 59.7109 400.672 59.8707 400.547 60.0362C400.497 60.1047 400.446 60.1674 400.395 60.2359C400.389 60.2416 400.384 60.253 400.378 60.2588L398.309 63.854C398.224 64.0081 398.145 64.1622 398.06 64.3163C397.981 64.4647 397.891 64.6016 397.806 64.75C397.642 65.041 397.478 65.3378 397.308 65.6346C397.308 65.6346 397.297 65.6289 397.291 65.6231L397.229 65.7259C398.139 65.8457 399.106 65.703 400.033 65.2123L407.099 61.4629C408.478 60.7324 410.129 60.7324 411.514 61.4629L418.58 65.2123C422.056 67.0613 426.127 64.0766 425.459 60.1674L424.108 52.2236C423.843 50.6713 424.357 49.0848 425.471 47.9891L431.186 42.3622L431.197 42.3508Z" fill="#FF3008"/>
<path d="M6.95571 65.1039C4.37571 65.1039 2.48571 64.2439 1.28571 62.5339C0.0857142 60.8239 -0.274286 58.4139 0.205714 55.2839L7.58571 9.03391C7.94571 6.21391 8.94571 4.12391 10.5957 2.78391C12.2457 1.43391 14.4557 0.753906 17.2157 0.753906H36.2057C43.4057 0.753906 48.9357 2.36391 52.8157 5.57391C56.6857 8.78391 58.6157 13.2439 58.6157 18.9439C58.6157 23.8639 57.5357 27.9139 55.3757 31.0939C53.2157 34.2739 50.2357 36.6139 46.4157 38.1139C42.6057 39.6139 38.2757 40.3639 33.4157 40.3639V38.7439H36.8357C39.8957 38.7439 42.3957 39.5939 44.3457 41.3039C46.2957 43.0139 47.8357 45.2839 48.9757 48.0939L51.4957 54.6639C52.3357 56.8239 52.6157 58.6639 52.3457 60.2039C52.0757 61.7339 51.2957 62.9339 50.0057 63.8039C48.7157 64.6739 46.9057 65.1139 44.5557 65.1139C42.2057 65.1139 40.4757 64.5439 39.1557 63.4039C37.8357 62.2639 36.6957 60.4339 35.7357 57.9139L30.9657 45.1339C30.3657 43.4539 29.5757 42.2739 28.5857 41.5839C27.5957 40.8939 26.2557 40.5439 24.5857 40.5439H19.0057L16.5757 56.8339C16.0957 59.5939 15.0557 61.6639 13.4657 63.0439C11.8757 64.4239 9.69571 65.1139 6.93571 65.1139L6.95571 65.1039ZM20.9057 28.8339H32.8757C36.0557 28.8339 38.4957 28.1339 40.2157 26.7139C41.9257 25.3039 42.7757 23.1939 42.7757 20.3739C42.7757 18.0339 42.0257 16.2939 40.5257 15.1539C39.0257 14.0139 36.6257 13.4439 33.3257 13.4439H23.3357L20.9057 28.8339Z" fill="#FF3008"/>
<path d="M76.0754 65.2837C73.1954 65.2837 70.5954 64.6237 68.2854 63.3037C65.9754 61.9837 64.1454 60.2438 62.7954 58.0838C61.4454 55.9238 60.7754 53.5838 60.7754 51.0638C60.7754 47.9438 61.6554 45.4038 63.4254 43.4538C65.1954 41.5037 67.9054 40.0638 71.5654 39.1338C75.2254 38.2038 79.8754 37.7438 85.5154 37.7438H92.6254L91.4554 45.2137H85.5154C83.2354 45.2137 81.4054 45.3937 80.0254 45.7537C78.6454 46.1138 77.6454 46.6438 77.0054 47.3338C76.3754 48.0238 76.0554 48.9438 76.0554 50.0838C76.0554 51.5238 76.5654 52.6637 77.5854 53.5037C78.6054 54.3438 79.9554 54.7637 81.6354 54.7637C83.1954 54.7637 84.5654 54.4538 85.7354 53.8237C86.9054 53.1937 87.8654 52.3237 88.6154 51.2137C89.3654 50.1037 89.8254 48.8338 90.0154 47.3838L91.7254 37.0337C92.0854 34.9337 91.6654 33.3337 90.4654 32.2137C89.2654 31.1037 87.2554 30.5438 84.4354 30.5438C82.6954 30.5438 80.9954 30.6937 79.3454 30.9937C77.6954 31.2937 75.8854 31.8038 73.8954 32.5238C72.3354 33.1238 70.9754 33.2138 69.8054 32.7938C68.6354 32.3738 67.7354 31.6737 67.1054 30.6737C66.4754 29.6838 66.1854 28.5937 66.2454 27.3937C66.3054 26.1937 66.7854 25.0437 67.6854 23.9237C68.5854 22.8137 69.9654 21.9638 71.8254 21.3638C74.5254 20.4038 77.1054 19.7437 79.5654 19.3837C82.0254 19.0237 84.3954 18.8438 86.6754 18.8438C92.1354 18.8438 96.3754 19.8538 99.4054 21.8638C102.435 23.8738 104.485 26.5337 105.565 29.8237C106.645 33.1237 106.885 36.7537 106.285 40.7137L103.675 57.0938C103.315 59.6738 102.385 61.6537 100.885 63.0337C99.3854 64.4137 97.4054 65.1037 94.9454 65.1037C92.6654 65.1037 90.9554 64.3638 89.8154 62.8937C88.6754 61.4237 88.3754 59.2438 88.9154 56.3638L89.5454 52.5838L89.7254 55.4637C88.8854 57.7437 87.7454 59.6038 86.3054 61.0438C84.8654 62.4837 83.2754 63.5538 81.5354 64.2438C79.7954 64.9338 77.9654 65.2837 76.0454 65.2837H76.0754Z" fill="#FF3008"/>
<path d="M135.835 65.2841C131.275 65.2841 127.565 64.4441 124.715 62.7641C121.865 61.0841 119.865 58.8241 118.735 55.9741C117.595 53.1241 117.325 49.8741 117.925 46.2141L120.175 31.7241H118.195C116.215 31.7241 114.685 31.2941 113.605 30.4241C112.525 29.5541 111.985 28.3041 111.985 26.6841C111.985 24.5241 112.675 22.8541 114.055 21.6841C115.435 20.5141 117.355 19.9341 119.815 19.9341H121.975L123.055 13.6341C123.475 11.1741 124.405 9.31406 125.845 8.05406C127.285 6.79406 129.235 6.16406 131.695 6.16406C134.455 6.16406 136.445 6.94406 137.675 8.50406C138.905 10.0641 139.305 12.2241 138.895 14.9841L137.995 19.9341H144.475C146.515 19.9341 148.105 20.3541 149.245 21.1941C150.385 22.0341 150.955 23.2641 150.955 24.8841C150.955 26.8041 150.325 28.4241 149.065 29.7441C147.805 31.0641 146.035 31.7241 143.755 31.7241H136.195L134.035 45.4941C133.615 47.9541 133.905 49.7141 134.895 50.7541C135.885 51.8041 137.275 52.3341 139.085 52.3341C139.985 52.3341 140.735 52.2741 141.335 52.1541C141.935 52.0341 142.595 51.9741 143.315 51.9741C144.455 51.9741 145.275 52.2741 145.795 52.8741C146.305 53.4741 146.555 54.6141 146.555 56.2941C146.555 59.2341 146.045 61.2741 145.025 62.4141C144.005 63.5541 142.715 64.2741 141.155 64.5741C140.315 64.7541 139.415 64.9141 138.455 65.0741C137.495 65.2241 136.625 65.2941 135.845 65.2941L135.835 65.2841Z" fill="#FF3008"/>
<path d="M174.626 65.2837C169.886 65.2837 165.726 64.4137 162.166 62.6737C158.596 60.9337 155.816 58.5037 153.836 55.3838C151.856 52.2638 150.866 48.6338 150.866 44.4938C150.866 39.3938 152.006 34.9237 154.286 31.0837C156.566 27.2437 159.626 24.2437 163.466 22.0837C167.306 19.9237 171.596 18.8438 176.336 18.8438C180.176 18.8438 183.436 19.5037 186.106 20.8237C188.776 22.1437 190.906 23.8538 192.496 25.9538C194.086 28.0538 195.156 30.4937 195.696 33.2837C196.236 36.0737 196.326 38.9037 195.966 41.7837C195.786 43.2237 195.346 44.1838 194.656 44.6637C193.966 45.1437 193.116 45.3838 192.096 45.3838H163.926L165.006 37.7337H184.986L183.636 38.9038C183.876 37.0438 183.766 35.3938 183.316 33.9538C182.866 32.5138 182.056 31.3738 180.886 30.5338C179.716 29.6938 178.146 29.2738 176.166 29.2738C174.186 29.2738 172.616 29.7137 171.266 30.5737C169.916 31.4437 168.866 32.6037 168.116 34.0337C167.366 35.4737 166.816 37.0938 166.446 38.8937L165.996 42.4038C165.396 45.8838 166.026 48.5737 167.886 50.4637C169.746 52.3537 172.596 53.2938 176.436 53.2938C177.756 53.2938 179.276 53.1538 180.976 52.8838C182.686 52.6138 184.176 52.1738 185.436 51.5838C187.056 50.9838 188.416 50.8537 189.536 51.1737C190.646 51.5037 191.476 52.1537 192.006 53.1037C192.546 54.0637 192.776 55.1637 192.686 56.3937C192.596 57.6237 192.186 58.7938 191.476 59.9038C190.756 61.0138 189.676 61.8738 188.236 62.4738C186.136 63.4338 183.896 64.1437 181.526 64.5938C179.156 65.0438 176.856 65.2638 174.646 65.2638L174.626 65.2837Z" fill="#FF3008"/>
<path d="M235.725 64.2042C232.725 64.2042 230.555 63.4142 229.195 61.8242C227.845 60.2342 227.385 57.9442 227.805 54.9442L235.185 8.59416C235.605 6.01416 236.575 4.06416 238.105 2.74416C239.635 1.42416 241.725 0.76416 244.365 0.76416H274.335C276.555 0.76416 278.235 1.21416 279.375 2.11416C280.515 3.01416 281.085 4.27416 281.085 5.89416C281.085 8.29416 280.395 10.1742 279.015 11.5142C277.635 12.8642 275.805 13.5442 273.525 13.5442H250.125L248.235 25.6042H268.485C270.645 25.6042 272.275 26.0542 273.395 26.9542C274.505 27.8542 275.055 29.1442 275.055 30.8242C275.055 33.1642 274.395 35.0042 273.075 36.3542C271.755 37.7042 269.925 38.3842 267.585 38.3842H246.255L244.095 51.4342H266.325C268.485 51.4342 270.155 51.8842 271.325 52.7842C272.495 53.6842 273.075 54.9742 273.075 56.6542C273.075 58.9942 272.385 60.8342 271.005 62.1842C269.625 63.5342 267.795 64.2142 265.515 64.2142H235.725V64.2042Z" fill="#FF3008"/>
<path d="M295.846 65.2837C292.966 65.2837 290.366 64.6237 288.056 63.3037C285.746 61.9837 283.916 60.2438 282.566 58.0838C281.216 55.9238 280.536 53.5838 280.536 51.0638C280.536 47.9438 281.416 45.4038 283.186 43.4538C284.956 41.5037 287.666 40.0638 291.336 39.1338C294.996 38.2038 299.646 37.7438 305.286 37.7438H312.396L311.226 45.2137H305.286C303.006 45.2137 301.176 45.3937 299.796 45.7537C298.416 46.1138 297.416 46.6438 296.776 47.3338C296.146 48.0238 295.836 48.9438 295.836 50.0838C295.836 51.5238 296.346 52.6637 297.366 53.5037C298.386 54.3438 299.736 54.7637 301.416 54.7637C302.976 54.7637 304.336 54.4538 305.506 53.8237C306.676 53.1937 307.636 52.3237 308.386 51.2137C309.136 50.1037 309.596 48.8338 309.776 47.3838L311.486 37.0337C311.846 34.9337 311.426 33.3337 310.226 32.2137C309.026 31.1037 307.016 30.5438 304.196 30.5438C302.456 30.5438 300.756 30.6937 299.116 30.9937C297.466 31.2937 295.646 31.8038 293.666 32.5238C292.106 33.1238 290.736 33.2138 289.566 32.7938C288.396 32.3738 287.496 31.6737 286.866 30.6737C286.236 29.6838 285.946 28.5937 286.006 27.3937C286.066 26.1937 286.546 25.0437 287.446 23.9237C288.346 22.8137 289.726 21.9638 291.586 21.3638C294.286 20.4038 296.866 19.7437 299.326 19.3837C301.786 19.0237 304.156 18.8438 306.436 18.8438C311.896 18.8438 316.146 19.8538 319.166 21.8638C322.196 23.8738 324.256 26.5337 325.336 29.8237C326.416 33.1237 326.656 36.7537 326.056 40.7137L323.446 57.0938C323.086 59.6738 322.156 61.6537 320.656 63.0337C319.156 64.4137 317.176 65.1037 314.716 65.1037C312.436 65.1037 310.726 64.3638 309.586 62.8937C308.446 61.4237 308.146 59.2438 308.686 56.3638L309.316 52.5838L309.496 55.4637C308.656 57.7437 307.516 59.6038 306.076 61.0438C304.636 62.4837 303.046 63.5538 301.306 64.2438C299.566 64.9338 297.736 65.2837 295.816 65.2837H295.846Z" fill="#FF3008"/>
<path d="M355.606 65.2841C351.046 65.2841 347.336 64.4441 344.486 62.7641C341.636 61.0841 339.636 58.8241 338.506 55.9741C337.366 53.1241 337.096 49.8741 337.696 46.2141L339.946 31.7241H337.966C335.986 31.7241 334.456 31.2941 333.376 30.4241C332.296 29.5541 331.756 28.3041 331.756 26.6841C331.756 24.5241 332.446 22.8541 333.826 21.6841C335.206 20.5141 337.126 19.9341 339.586 19.9341H341.746L342.826 13.6341C343.246 11.1741 344.176 9.31406 345.616 8.05406C347.056 6.79406 349.006 6.16406 351.466 6.16406C354.226 6.16406 356.216 6.94406 357.446 8.50406C358.676 10.0641 359.076 12.2241 358.656 14.9841L357.756 19.9341H364.236C366.276 19.9341 367.866 20.3541 369.006 21.1941C370.146 22.0341 370.716 23.2641 370.716 24.8841C370.716 26.8041 370.086 28.4241 368.826 29.7441C367.566 31.0641 365.796 31.7241 363.516 31.7241H355.956L353.796 45.4941C353.376 47.9541 353.666 49.7141 354.646 50.7541C355.636 51.8041 357.036 52.3341 358.836 52.3341C359.736 52.3341 360.486 52.2741 361.086 52.1541C361.686 52.0341 362.346 51.9741 363.066 51.9741C364.206 51.9741 365.026 52.2741 365.536 52.8741C366.046 53.4741 366.306 54.6141 366.306 56.2941C366.306 59.2341 365.796 61.2741 364.776 62.4141C363.756 63.5541 362.466 64.2741 360.906 64.5741C360.066 64.7541 359.166 64.9141 358.206 65.0741C357.246 65.2241 356.376 65.2941 355.596 65.2941L355.606 65.2841Z" fill="#FF3008"/>
</svg>
